# xmcd
#
# Track frame offsets:
#	150
#	2682
#	14795
#	26358
#	34927
#	45592
#	59744
#	67116
#	79757
#	90282
#	100016
#	110684
#	120953
#	137775
#	149377
#	158347
#	168573
#	184122
#	194651
#	203100
#	215749
#	221025
#	230911
#	246859
#	262678
#	276948
#	291268
#	302331
#	309305
#	320991
#
# Disc length: 4398 seconds
#
# Revision: 1
# Processed by: cddbd v1.5.2PL0 Copyright (c) Steve Scherf et al.
# Submitted via: audiograbber 1.83.01
#
DISCID=bc112c1e
DTITLE=Various Artist - Hexenhouse Attack vol. 9
DYEAR=1900
DGENRE=Trance
TTITLE0=Intro - Intro
TTITLE1=Aquagen - Partyarlam
TTITLE2=Signum - Coming on Strong
TTITLE3=Woddy van Eyden - Feels Like Flyin
TTITLE4=Floorfilla - Anthem 3
TTITLE5=Trancesetter - Roaches
TTITLE6=Enigma - Push the Limits
TTITLE7=Tom Stevens - Emotions
TTITLE8=Blank and Jones - The Nightfly
TTITLE9=Avbacada - Dirty Bich
TTITLE10=Kosmonova - Danse Avec Moi
TTITLE11=De bos - Key Lock
TTITLE12=Mario Lopez and R.E.D.S.E.C.T.O.R. - Into my Brain
TTITLE13=System F. - Cry
TTITLE14=Klubbheads - Turn Up the Bass
TTITLE15=Access Code - System error
TTITLE16=Ricky le Roy - Turareg
TTITLE17=DJ Jurgen - Higher and Higher
TTITLE18=Floorfilla - Anthem 2
TTITLE19=Pyramid - Round and Round
TTITLE20=Des Mitchel - Welcome to the Dance
TTITLE21=G.I.C. Project - Smalltown Boy
TTITLE22=Rollergirl - Eternal Flame
TTITLE23=Dial m for Moguai - Go High
TTITLE24=Clubbvers Delight - Groove Pleasure
TTITLE25=Tomcraft vs. Sunbeam - Versus
TTITLE26=The Beatshop - Read my Lips (Sex me up)
TTITLE27=Storm - Time to Burn
TTITLE28=Techno Teens - Winke Winke
TTITLE29=Mario piu - Communication
EXTD=
EXTT0=
EXTT1=
EXTT2=
EXTT3=
EXTT4=
EXTT5=
EXTT6=
EXTT7=
EXTT8=
EXTT9=
EXTT10=
EXTT11=
EXTT12=
EXTT13=
EXTT14=
EXTT15=
EXTT16=
EXTT17=
EXTT18=
EXTT19=
EXTT20=
EXTT21=
EXTT22=
EXTT23=
EXTT24=
EXTT25=
EXTT26=
EXTT27=
EXTT28=
EXTT29=
PLAYORDER=
